<?xml version="1.0" encoding="utf-8"?>
<!-- Generator: Adobe Illustrator 26.2.1, SVG Export Plug-In . SVG Version: 6.00 Build 0)  -->
<svg version="1.1" id="Modo_de_aislamiento" xmlns="http://www.w3.org/2000/svg" xmlns:xlink="http://www.w3.org/1999/xlink"
	 x="0px" y="0px" viewBox="0 0 500 500" style="enable-background:new 0 0 500 500;" xml:space="preserve">
<style type="text/css">
	.st0{fill-rule:evenodd;clip-rule:evenodd;fill:url(#SVGID_1_);stroke:#FFFFFF;stroke-width:2;stroke-miterlimit:10;}
	.st1{fill-rule:evenodd;clip-rule:evenodd;fill:#FFFFFF;}
</style>
<g>
	<linearGradient id="SVGID_1_" gradientUnits="userSpaceOnUse" x1="-275.6003" y1="258.8092" x2="-275.6003" y2="98.7311">
		<stop  offset="0" style="stop-color:#20B038"/>
		<stop  offset="1" style="stop-color:#60D66A"/>
	</linearGradient>
	<path class="st0" d="M-222.16,258.81h-106.87c-14.63,0-26.6-11.97-26.6-26.6V125.33c0-14.63,11.97-26.6,26.6-26.6h106.87
		c14.63,0,26.6,11.97,26.6,26.6v106.87C-195.56,246.84-207.53,258.81-222.16,258.81z"/>
	<g>
		<path class="st1" d="M-221.03,177.37c0,29.36-23.99,53.17-53.58,53.17c-9.4,0-18.23-2.4-25.9-6.62l-29.67,9.43l9.67-28.52
			c-4.88-8.01-7.69-17.41-7.69-27.45c0-29.37,23.99-53.17,53.58-53.17C-245.01,124.2-221.03,148-221.03,177.37L-221.03,177.37z
			 M-274.61,132.66c-24.85,0-45.05,20.05-45.05,44.7c0,9.78,3.18,18.84,8.58,26.21l-5.63,16.6l17.31-5.5
			c7.11,4.67,15.63,7.39,24.79,7.39c24.84,0,45.05-20.05,45.05-44.7C-229.56,152.71-249.77,132.66-274.61,132.66L-274.61,132.66z
			 M-247.55,189.61c-0.33-0.54-1.21-0.87-2.52-1.52c-1.31-0.65-7.78-3.81-8.98-4.24c-1.2-0.43-2.08-0.65-2.95,0.65
			c-0.88,1.3-3.39,4.24-4.16,5.11c-0.76,0.87-1.53,0.98-2.84,0.33c-1.32-0.65-5.55-2.03-10.56-6.47c-3.9-3.46-6.54-7.72-7.31-9.03
			c-0.76-1.3-0.08-2.01,0.57-2.66c0.59-0.59,1.32-1.52,1.97-2.28c0.66-0.76,0.88-1.31,1.31-2.18c0.44-0.87,0.22-1.63-0.11-2.28
			c-0.33-0.65-2.95-7.06-4.05-9.68c-1.09-2.6-2.18-2.51-2.95-2.51c-0.76,0-2.18,0.23-2.18,0.23s-2.63,0.33-3.84,1.63
			c-1.2,1.3-4.6,4.46-4.6,10.87c0,6.41,4.7,12.61,5.36,13.48c0.66,0.87,9.08,14.46,22.44,19.68c13.35,5.22,13.35,3.48,15.76,3.26
			c2.4-0.21,7.77-3.15,8.87-6.19C-247.22,192.76-247.22,190.15-247.55,189.61L-247.55,189.61z M-247.55,189.61"/>
	</g>
</g>
</svg>
